
<svg width="64" height="64" viewBox="0 0 24 24" fill="none" xmlns="http://www.w3.org/2000/svg">
  <path d="m9.9 17.15 2.5-1.5c1-.6 1.9-1.1 2.7-1.5A12 12 0 0 0 19.2 8.9C19.8 5.3 18 5 18 5c-1 0-5.7 1-5.7 1s-4.5 2-7.6 7.5c-3.1 5.5 0 7.7 0 7.7s1 1.8 4.1 1.8c3.1 0 6-2 8.6-5" stroke="#0ea5e9" stroke-width="2" stroke-linecap="round" stroke-linejoin="round"/>
  <path d="M18 5a5 5 0 0 1 5 5" stroke="#0ea5e9" stroke-width="2" stroke-linecap="round" stroke-linejoin="round"/>
  <path d="m7.5 12.2-4.7 2.8" stroke="#0ea5e9" stroke-width="2" stroke-linecap="round" stroke-linejoin="round"/>
  <path d="m7 16 .4-9 2.6 6" stroke="#0ea5e9" stroke-width="2" stroke-linecap="round" stroke-linejoin="round"/>
</svg>
